<svg width="50" height="40" viewBox="0 0 50 40" fill="none" xmlns="http://www.w3.org/2000/svg">
<path d="M49.3618 11.9275C49.4727 18.172 44.6914 23.1445 38.6781 23.0313C32.6648 22.9203 27.6994 17.7661 27.5884 11.5215C27.4775 5.27697 32.2589 0.30445 38.2722 0.41773C44.2831 0.52865 49.2485 5.68289 49.3618 11.9275Z" fill="url(#paint0_linear_125_1377)"/>
<path d="M43.2635 19.5644C44.748 19.5644 45.4985 18.4812 45.4985 16.3477C45.4985 14.3299 44.7456 13.3057 43.2635 13.3057H41.4605C41.8688 12.9069 42.2794 12.475 42.6853 12.0219C43.1975 11.4507 43.6671 10.8584 44.0825 10.2637C44.5002 9.66657 44.8424 9.05533 45.0996 8.44645C45.3639 7.82813 45.4985 7.21925 45.4985 6.64341C45.4985 6.06993 45.4324 5.59557 45.3002 5.23213C45.1633 4.85689 44.9533 4.56425 44.6701 4.36365C44.3963 4.16777 44.0447 4.03797 43.6246 3.97661C43.2187 3.91761 42.7325 3.88693 42.1827 3.88693H33.7622C33.0235 3.88693 32.4453 4.16541 32.0417 4.71765C31.6476 5.25809 31.447 6.03217 31.447 7.01629C31.447 9.09309 32.1999 10.1457 33.6819 10.1457H35.5652C35.2136 10.5091 34.836 10.9127 34.4371 11.3516C33.925 11.9157 33.4459 12.5104 33.0117 13.1193C32.5751 13.7305 32.2046 14.3559 31.9072 14.9742C31.6028 15.6091 31.447 16.2132 31.447 16.7631C31.447 17.4168 31.5391 17.9384 31.7208 18.3136C31.9049 18.6959 32.1786 18.9839 32.535 19.175C32.8795 19.3591 33.3067 19.4724 33.8094 19.5101C34.2932 19.5455 34.8525 19.5644 35.4685 19.5644H43.2635ZM37.052 9.53913C37.4037 9.21109 37.7128 8.93261 37.9701 8.70841C38.2981 8.42285 38.5766 8.19629 38.8008 8.04053C39.0179 7.88713 39.1996 7.78329 39.3389 7.72901C39.4734 7.67709 39.6055 7.65113 39.7306 7.65113C39.9973 7.65113 40.1979 7.74553 40.3371 7.93669C40.4858 8.13965 40.5543 8.35441 40.5472 8.59041C40.5425 8.82405 40.4457 9.03409 40.2522 9.23705C40.061 9.43765 39.7401 9.54149 39.2987 9.54149H37.052V9.53913ZM36.3912 10.1457H39.2964C39.8982 10.1457 40.3513 9.98517 40.6416 9.66893C40.9319 9.35269 41.0853 8.99397 41.0994 8.59985C41.1136 8.20573 40.9979 7.84465 40.7596 7.52841C40.5141 7.20509 40.1672 7.03989 39.7283 7.03989C39.556 7.03989 39.3766 7.07293 39.1925 7.13429C39.0085 7.19801 38.7866 7.31837 38.5199 7.50245C38.2603 7.67945 37.9394 7.93905 37.5641 8.26945C37.2007 8.58805 36.7429 9.01521 36.1977 9.53677H33.6819C33.099 9.53677 32.6837 9.34325 32.4099 8.94677C32.1314 8.54085 31.9898 7.89185 31.9898 7.01393C31.9898 6.77557 32.0134 6.50181 32.0559 6.19737C32.0984 5.90473 32.1857 5.63097 32.3131 5.37845C32.4382 5.13301 32.6176 4.91825 32.8465 4.74597C33.0683 4.57605 33.3751 4.49109 33.7598 4.49109H42.1803C42.7207 4.49109 43.1809 4.51941 43.5538 4.57605C43.9102 4.63033 44.191 4.73181 44.394 4.87813C44.5899 5.01973 44.7267 5.22033 44.8141 5.49173C44.9061 5.77729 44.9533 6.16433 44.9533 6.63869C44.9533 7.16497 44.8211 7.71957 44.5592 8.29069C44.2901 8.87597 43.9432 9.46597 43.5255 10.0465C43.1054 10.6295 42.6311 11.21 42.1142 11.7717C41.6092 12.3216 41.1041 12.8361 40.6133 13.301H37.6467C37.1181 13.301 36.7075 13.4143 36.4195 13.6385C36.1316 13.8627 35.9405 14.1317 35.8508 14.4385C35.7635 14.7429 35.7658 15.0639 35.8602 15.3872C35.957 15.7153 36.1316 15.9772 36.3818 16.166C36.6319 16.3548 36.9435 16.4398 37.3093 16.4256C37.6703 16.4091 38.0763 16.2297 38.5199 15.8899C38.7441 15.7129 39.0651 15.4509 39.4852 15.0993C39.8982 14.7547 40.3466 14.3535 40.8233 13.9075H43.2588C44.3963 13.9075 44.9509 14.7028 44.9509 16.343C44.9509 18.0989 44.3987 18.9532 43.2588 18.9532H35.4661C34.8218 18.9532 34.2601 18.9319 33.7999 18.8871C33.3563 18.8446 32.9952 18.7479 32.7285 18.5968C32.4689 18.4529 32.2872 18.2475 32.1715 17.9667C32.0512 17.6764 31.9898 17.2705 31.9898 16.7584C31.9898 16.2651 32.1385 15.7153 32.4311 15.1229C32.7332 14.514 33.1132 13.9004 33.5639 13.2986C34.0147 12.6945 34.5079 12.1068 35.0248 11.5499C35.5275 11.0165 35.9853 10.5421 36.3912 10.1457ZM39.9454 13.9122C39.6221 14.2049 39.32 14.4645 39.0486 14.6863L38.2061 15.3754C37.878 15.6327 37.5807 15.7743 37.3234 15.7931C37.0733 15.8144 36.8656 15.7672 36.7098 15.6563C36.5541 15.5453 36.4455 15.3919 36.3794 15.1937C36.3133 14.9978 36.311 14.8137 36.37 14.6344C36.429 14.4527 36.5611 14.2851 36.7617 14.1388C36.9647 13.9901 37.2621 13.9146 37.6491 13.9146H39.9454V13.9122Z" fill="#F5F5F5"/>
<path d="M5.62133e-06 21.6365C-0.00235438 22.5474 0.738687 23.2932 1.64965 23.2979L4.09461 23.305C5.00557 23.3074 5.75133 22.564 5.75605 21.6554V21.6318C5.75841 20.7208 5.01737 19.975 4.10641 19.9703L1.66145 19.9632C0.750488 19.9609 0.00472562 20.7043 5.62133e-06 21.6129V21.6365Z" fill="url(#paint1_linear_125_1377)"/>
<path d="M6.44279 14.9978C6.44043 15.9088 7.18383 16.6545 8.09243 16.6592L8.61635 16.6616C9.52731 16.664 10.2731 15.9206 10.2778 15.012V14.9884C10.2801 14.0774 9.53675 13.3316 8.62815 13.3269L8.10187 13.3246C7.19091 13.3222 6.44515 14.0632 6.44043 14.9742L6.44279 14.9978Z" fill="url(#paint2_linear_125_1377)"/>
<path d="M3.87745 8.319C3.87509 9.22996 4.61848 9.97572 5.52708 9.97808L12.7581 9.99933C13.6691 10.0017 14.4148 9.26064 14.4196 8.34968V8.32372C14.4219 7.41276 13.6785 6.66701 12.7699 6.66229L5.53889 6.64104C4.62793 6.63868 3.88217 7.38208 3.87745 8.29068V8.319Z" fill="url(#paint3_linear_125_1377)"/>
<path d="M12.416 1.67325C12.4137 2.58421 13.1547 3.32997 14.0657 3.33469L16.7938 3.34177C17.7048 3.34413 18.4505 2.60073 18.4553 1.69213V1.66853C18.4576 0.757567 17.7166 0.0118053 16.8056 0.00708532L14.0775 5.60356e-06C13.1665 -0.0023544 12.4207 0.741047 12.416 1.64965V1.67325Z" fill="url(#paint4_linear_125_1377)"/>
<path d="M26.2078 11.7032C26.2244 5.90709 30.3921 1.09268 35.8862 0.0637241L21.9622 0.0212459C21.0512 0.0188859 20.3055 0.759924 20.3008 1.67088V1.69448C20.2984 2.60544 21.0394 3.3512 21.9504 3.35592L23.6071 3.36064C24.5181 3.363 25.2591 4.11112 25.2568 5.02208V5.04804C25.2544 5.959 24.5063 6.7024 23.5953 6.69768L17.8511 6.68116C16.9401 6.6788 16.1944 7.41984 16.1896 8.3308V8.35676C16.1873 9.26772 16.9307 10.0135 17.8393 10.0182L19.9255 10.0253C20.8365 10.0276 21.5799 10.7758 21.5752 11.6867V11.7103C21.5728 12.6213 20.8247 13.3647 19.9137 13.36L13.6408 13.3411C12.7299 13.3387 11.9841 14.0821 11.9818 14.9907V15.0167C11.9794 15.9276 12.7228 16.6734 13.6314 16.6781L15.2315 16.6828C16.1424 16.6852 16.8858 17.4333 16.8811 18.3419V18.3537C16.8788 19.2647 16.1306 20.0057 15.2197 20.0034L8.46064 19.9821C7.54968 19.9798 6.80392 20.7232 6.7992 21.6318V21.6554C6.79684 22.5663 7.54024 23.3121 8.44884 23.3168L35.806 23.3994C30.3284 22.3374 26.1913 17.4994 26.2078 11.7032Z" fill="url(#paint5_linear_125_1377)"/>
<path d="M17.064 34.3462V35.4317H10.2468V34.3462H17.064ZM16.8428 26.3328L10.5648 35.4317H9.74203V34.4361L16.0131 25.3648H16.8428V26.3328ZM16.2758 25.3648V26.4572H9.83191V25.3648H16.2758ZM21.5582 35.57C21.0373 35.57 20.5648 35.4824 20.1408 35.3072C19.7213 35.1275 19.3595 34.8763 19.0553 34.5536C18.7557 34.2309 18.5252 33.8484 18.3639 33.4059C18.2025 32.9634 18.1219 32.4794 18.1219 31.9539V31.6635C18.1219 31.0551 18.2118 30.5135 18.3915 30.0387C18.5713 29.5593 18.8156 29.1537 19.1244 28.8218C19.4332 28.49 19.7835 28.2388 20.1753 28.0682C20.5671 27.8977 20.9728 27.8124 21.3922 27.8124C21.9269 27.8124 22.3878 27.9046 22.775 28.089C23.1668 28.2733 23.4872 28.5315 23.7361 28.8633C23.985 29.1906 24.1694 29.5778 24.2892 30.0249C24.4091 30.4674 24.469 30.9514 24.469 31.4768V32.0507H18.8824V31.0067H23.1899V30.9099C23.1714 30.578 23.1023 30.2554 22.9825 29.9419C22.8672 29.6285 22.6828 29.3704 22.4293 29.1675C22.1758 28.9647 21.8301 28.8633 21.3922 28.8633C21.1018 28.8633 20.8345 28.9256 20.5902 29.05C20.3459 29.1699 20.1362 29.3496 19.961 29.5893C19.7859 29.829 19.6499 30.1217 19.5531 30.4674C19.4563 30.8131 19.4079 31.2118 19.4079 31.6635V31.9539C19.4079 32.3088 19.4563 32.643 19.5531 32.9565C19.6545 33.2653 19.7997 33.5372 19.9887 33.7723C20.1823 34.0074 20.415 34.1918 20.687 34.3254C20.9635 34.4591 21.277 34.5259 21.6273 34.5259C22.079 34.5259 22.4616 34.4338 22.775 34.2494C23.0885 34.065 23.3627 33.8184 23.5978 33.5096L24.3722 34.1249C24.2109 34.3692 24.0057 34.602 23.7568 34.8232C23.5079 35.0445 23.2014 35.2243 22.8373 35.3625C22.4777 35.5008 22.0514 35.57 21.5582 35.57ZM29.0668 35.57C28.546 35.57 28.0735 35.4824 27.6494 35.3072C27.23 35.1275 26.8682 34.8763 26.5639 34.5536C26.2643 34.2309 26.0339 33.8484 25.8725 33.4059C25.7112 32.9634 25.6305 32.4794 25.6305 31.9539V31.6635C25.6305 31.0551 25.7204 30.5135 25.9002 30.0387C26.08 29.5593 26.3243 29.1537 26.6331 28.8218C26.9419 28.49 27.2922 28.2388 27.684 28.0682C28.0758 27.8977 28.4814 27.8124 28.9009 27.8124C29.4356 27.8124 29.8965 27.9046 30.2837 28.089C30.6755 28.2733 30.9959 28.5315 31.2448 28.8633C31.4937 29.1906 31.678 29.5778 31.7979 30.0249C31.9177 30.4674 31.9777 30.9514 31.9777 31.4768V32.0507H26.3911V31.0067H30.6985V30.9099C30.6801 30.578 30.611 30.2554 30.4911 29.9419C30.3759 29.6285 30.1915 29.3704 29.938 29.1675C29.6845 28.9647 29.3388 28.8633 28.9009 28.8633C28.6105 28.8633 28.3432 28.9256 28.0989 29.05C27.8546 29.1699 27.6448 29.3496 27.4697 29.5893C27.2945 29.829 27.1585 30.1217 27.0618 30.4674C26.965 30.8131 26.9166 31.2118 26.9166 31.6635V31.9539C26.9166 32.3088 26.965 32.643 27.0618 32.9565C27.1632 33.2653 27.3084 33.5372 27.4973 33.7723C27.6909 34.0074 27.9237 34.1918 28.1957 34.3254C28.4722 34.4591 28.7857 34.5259 29.136 34.5259C29.5877 34.5259 29.9703 34.4338 30.2837 34.2494C30.5971 34.065 30.8714 33.8184 31.1065 33.5096L31.8809 34.1249C31.7195 34.3692 31.5144 34.602 31.2655 34.8232C31.0166 35.0445 30.7101 35.2243 30.3459 35.3625C29.9864 35.5008 29.56 35.57 29.0668 35.57ZM40.24 29.693V30.7785H34.7917V29.693H40.24ZM34.9991 25.3648V35.4317H33.6647V25.3648H34.9991ZM41.4015 25.3648V35.4317H40.074V25.3648H41.4015Z" fill="#5208F7"/>
<defs>
<linearGradient id="paint0_linear_125_1377" x1="30.4334" y1="0.035956" x2="52.1858" y2="30.1417" gradientUnits="userSpaceOnUse">
<stop stop-color="#FC6803"/>
<stop offset="0.0833" stop-color="#E96116"/>
<stop offset="0.2528" stop-color="#B75048"/>
<stop offset="0.4936" stop-color="#663498"/>
<stop offset="0.7594" stop-color="#0612F7"/>
</linearGradient>
<linearGradient id="paint1_linear_125_1377" x1="-0.000742168" y1="21.6232" x2="6.83316" y2="21.6437" gradientUnits="userSpaceOnUse">
<stop stop-color="#FC6803"/>
<stop offset="0.3753" stop-color="#FA6705"/>
<stop offset="0.5106" stop-color="#F3650C"/>
<stop offset="0.6069" stop-color="#E86117"/>
<stop offset="0.6849" stop-color="#D75B28"/>
<stop offset="0.7517" stop-color="#C1533E"/>
<stop offset="0.8108" stop-color="#A54A59"/>
<stop offset="0.8644" stop-color="#853E79"/>
<stop offset="0.9135" stop-color="#5F319F"/>
<stop offset="0.9572" stop-color="#3623C7"/>
<stop offset="0.9979" stop-color="#0913F4"/>
<stop offset="1" stop-color="#0612F7"/>
</linearGradient>
<linearGradient id="paint2_linear_125_1377" x1="6.44292" y1="14.9851" x2="11.167" y2="14.9993" gradientUnits="userSpaceOnUse">
<stop stop-color="#FC6803"/>
<stop offset="0.3753" stop-color="#FA6705"/>
<stop offset="0.5106" stop-color="#F3650C"/>
<stop offset="0.6069" stop-color="#E86117"/>
<stop offset="0.6849" stop-color="#D75B28"/>
<stop offset="0.7517" stop-color="#C1533E"/>
<stop offset="0.8108" stop-color="#A54A59"/>
<stop offset="0.8644" stop-color="#853E79"/>
<stop offset="0.9135" stop-color="#5F319F"/>
<stop offset="0.9572" stop-color="#3623C7"/>
<stop offset="0.9979" stop-color="#0913F4"/>
<stop offset="1" stop-color="#0612F7"/>
</linearGradient>
<linearGradient id="paint3_linear_125_1377" x1="3.8781" y1="8.30614" x2="16.2817" y2="8.34335" gradientUnits="userSpaceOnUse">
<stop stop-color="#FC6803"/>
<stop offset="0.3753" stop-color="#FA6705"/>
<stop offset="0.5106" stop-color="#F3650C"/>
<stop offset="0.6069" stop-color="#E86117"/>
<stop offset="0.6849" stop-color="#D75B28"/>
<stop offset="0.7517" stop-color="#C1533E"/>
<stop offset="0.8108" stop-color="#A54A59"/>
<stop offset="0.8644" stop-color="#853E79"/>
<stop offset="0.9135" stop-color="#5F319F"/>
<stop offset="0.9572" stop-color="#3623C7"/>
<stop offset="0.9979" stop-color="#0913F4"/>
<stop offset="1" stop-color="#0612F7"/>
</linearGradient>
<linearGradient id="paint4_linear_125_1377" x1="12.4151" y1="1.66057" x2="19.6201" y2="1.68218" gradientUnits="userSpaceOnUse">
<stop stop-color="#FC6803"/>
<stop offset="0.3753" stop-color="#FA6705"/>
<stop offset="0.5106" stop-color="#F3650C"/>
<stop offset="0.6069" stop-color="#E86117"/>
<stop offset="0.6849" stop-color="#D75B28"/>
<stop offset="0.7517" stop-color="#C1533E"/>
<stop offset="0.8108" stop-color="#A54A59"/>
<stop offset="0.8644" stop-color="#853E79"/>
<stop offset="0.9135" stop-color="#5F319F"/>
<stop offset="0.9572" stop-color="#3623C7"/>
<stop offset="0.9979" stop-color="#0913F4"/>
<stop offset="1" stop-color="#0612F7"/>
</linearGradient>
<linearGradient id="paint5_linear_125_1377" x1="-1.64997" y1="11.6188" x2="27.3622" y2="11.7059" gradientUnits="userSpaceOnUse">
<stop stop-color="#FC6803"/>
<stop offset="0.11" stop-color="#C85636"/>
<stop offset="0.2341" stop-color="#954469"/>
<stop offset="0.3608" stop-color="#693594"/>
<stop offset="0.4876" stop-color="#4528B8"/>
<stop offset="0.6147" stop-color="#2A1ED4"/>
<stop offset="0.742" stop-color="#1618E7"/>
<stop offset="0.8701" stop-color="#0A13F3"/>
<stop offset="1" stop-color="#0612F7"/>
</linearGradient>
</defs>
</svg>
